# xmcd CD database file
#
# Track frame offsets:
#	150
#	22187
#	38343
#	55169
#	75840
#	93777
#	114148
#	143149
#
# Disc length: 2151 seconds
#
# Revision: 0
# Processed by: cddbd v1.5.2PL0 Copyright (c) Steve Scherf et al.
# Submitted via: jetAudio 7
#
DISCID=4e086508
DTITLE=Various artist - Eight ( 8 )
DYEAR=1900
DGENRE=Persian Blues
TTITLE0=Parse zanoon
TTITLE1=Kaseye Gandom
TTITLE2=Kashki
TTITLE3=Zaer
TTITLE4=Delam Gerefteh
TTITLE5=Dakhil
TTITLE6=Pa Band
TTITLE7=Kabootar
EXTD=
EXTT0=
EXTT1=
EXTT2=
EXTT3=
EXTT4=
EXTT5=
EXTT6=
EXTT7=
PLAYORDER=
